# xmcd
#
# Track frame offsets:
#	150
#	18374
#	35660
#	55770
#	70491
#	87753
#	105186
#	124299
#	138836
#	153928
#	173096
#
# Disc length: 2635 seconds
# Revision: 0
# Processed by: cddbd v1.5.2PL0 Copyright (c) Steve Scherf et al.
# Submitted via: dBpowerAMP V12.0
#
DISCID=860a490b
DTITLE=F.I.R. - 讓我們一起微笑吧
DYEAR=2009
DGENRE=
TTITLE0=Find my way
TTITLE1=I am here
TTITLE2=向日葵盛開的夏天
TTITLE3=紀念日
TTITLE4=衝浪季節
TTITLE5=紅潮
TTITLE6=荊棘裡的花
TTITLE7=讓我們一起微笑吧
TTITLE8=貓頭鷹的夢
TTITLE9=We are
TTITLE10=Hero
EXTD=
EXTT0=
EXTT1=
EXTT2=
EXTT3=
EXTT4=
EXTT5=
EXTT6=
EXTT7=
EXTT8=
EXTT9=
EXTT10=
PLAYORDER=
